<svg width="385" height="206" viewBox="0 0 385 206" fill="none" xmlns="http://www.w3.org/2000/svg">
<g clip-path="url(#clip0_2_211)">
<path d="M211.55 0C216.67 1.22 220.18 5.94 219.68 11.18C219.18 16.42 214.76 20.43 209.51 20.43C204.26 20.43 199.82 16.44 199.32 11.18C198.82 5.92 202.33 1.2 207.47 0H211.55Z" fill="black"/>
<path d="M77.9599 205.85H76.5299C74.4999 205.48 72.5699 204.5 71.3099 202.72C68.9399 199.37 69.2499 194.89 72.1699 191.97C74.6099 189.53 78.4199 189.08 81.2799 191.06C84.6999 193.42 85.7499 197.89 83.9399 201.58C82.7599 204 80.4199 205.44 77.9499 205.84L77.9599 205.85ZM81.0799 201.46C82.8299 198.94 82.5699 195.49 80.3999 193.42C78.4599 191.56 75.4699 191.8 73.7699 193.82C71.8099 196.17 71.8499 199.55 73.8099 201.9C74.7599 203.04 76.1399 203.56 77.5699 203.5C78.8499 203.44 80.1799 202.76 81.0799 201.46Z" fill="black"/>
<path d="M181.31 205.86H179.9C177.96 205.5 176.05 204.55 174.8 202.86C172.64 199.92 172.55 196.01 174.67 193.03C176.25 190.81 178.68 189.64 181.41 189.88C183.79 190.09 186.06 191.67 187.26 194.02C188.54 196.52 188.57 199.31 187.16 201.93C186.07 203.95 183.83 205.5 181.31 205.87V205.86ZM183.9 202.12C186.21 199.7 186.16 195.85 183.9 193.54C181.91 191.51 178.75 191.77 177.04 193.97C175.18 196.36 175.25 199.76 177.31 202.01C179.05 203.92 182.03 204.08 183.91 202.12H183.9Z" fill="black"/>
<path d="M269.83 205.92L267.22 205.84C265.32 205.53 263.58 204.86 261.95 203.72L263.17 201.56C266.14 204.04 271.4 204.3 271.58 201.71C271.63 201.06 271.08 200.1 270.36 199.87L266.32 198.59C265.16 198.22 263.73 197.71 263.12 196.59C261.75 194.06 263.18 191.04 265.87 190.22C268.56 189.4 271.45 189.97 273.69 191.65L272.54 193.71C270.76 192.33 268.7 191.73 266.62 192.38C265.79 192.64 265.26 193.51 265.26 194.29C265.26 195.07 265.9 195.82 266.76 196.06L271.04 197.28C273.21 197.9 274.46 199.55 274.31 201.67C274.17 203.64 272.81 205.09 270.71 205.61L269.85 205.92H269.83Z" fill="black"/>
<path d="M144.36 205.85H142.02C140.1 205.53 138.36 204.95 136.68 203.74L137.8 201.54C140.79 203.97 146.05 204.36 146.26 201.67C146.3 201.13 145.79 200.1 145.14 199.89L140.71 198.49C139.6 198.14 138.29 197.58 137.75 196.51C136.46 193.93 137.93 190.96 140.65 190.18C143.37 189.4 146.15 189.95 148.35 191.66L147.2 193.7C145.54 192.38 143.48 191.76 141.39 192.33C140.5 192.57 139.93 193.43 139.93 194.28C139.93 194.96 140.55 195.78 141.34 196.01L145.96 197.37C147.54 197.83 148.72 199.04 148.92 200.59C149.24 202.99 147.98 204.92 145.65 205.51L144.36 205.84V205.85Z" fill="black"/>
<path d="M40.9801 205.85H38.6401C36.7301 205.54 34.9901 204.94 33.3101 203.75L34.4201 201.55C37.4301 203.97 42.6501 204.39 42.8801 201.67C42.9301 201.13 42.4101 200.11 41.7501 199.9L37.3201 198.51C36.2901 198.19 35.0101 197.64 34.4501 196.66C33.0701 194.25 34.3401 191.25 36.9101 190.33C39.6801 189.33 42.6501 189.91 44.9701 191.67L43.8201 193.72C42.1501 192.39 40.1001 191.79 38.0001 192.36C37.1101 192.6 36.5501 193.46 36.5501 194.31C36.5501 195 37.1601 195.81 37.9501 196.04L42.5701 197.39C44.8501 198.06 45.9601 200.02 45.4901 202.37C45.0601 204.53 43.0801 205.53 40.9701 205.86L40.9801 205.85Z" fill="black"/>
<path d="M239.36 205.85H237.95C233.95 205.31 231.95 202.41 231.94 198.25V189.94L234.46 189.95L234.57 199.38C234.59 201.22 235.89 202.85 237.35 203.29C239.03 203.79 240.85 203.42 241.89 201.94C242.54 201.02 242.94 199.65 242.94 198.48L242.97 189.94H245.49L245.47 198.91C245.47 199.88 245.13 201.09 244.79 201.97C243.86 204.41 241.75 205.54 239.35 205.85H239.36Z" fill="black"/>
<path d="M345.38 205.92H343.46C340.66 205.35 338.42 203.21 337.51 200.83C336.33 197.73 336.93 194.61 338.94 192.32C340.43 190.62 342.44 189.85 344.67 189.86C347.19 189.87 349.41 191.09 350.52 193.35L348.55 194.66C347.82 193.23 346.64 192.44 345.4 192.25C343.91 192.02 342.48 192.27 341.39 193.3C338.9 195.64 338.87 199.68 341.24 202.12C342.39 203.3 343.94 203.74 345.55 203.4C346.81 203.13 348.07 202.29 348.63 200.92L350.78 202.11C349.92 204.11 348.1 205.15 346.06 205.65L345.38 205.92Z" fill="black"/>
<path d="M51.87 118.91L51.86 135.36H20.45L20.44 168.78L0.23999 185.27V82.3799H68.41L51.94 100.13L20.45 100.14L20.44 118.91H51.87Z" fill="black"/>
<path d="M383.87 168.76L363.69 168.78L347.51 143.87L340.95 150.68L340.96 168.78L321.94 168.77L321.93 82.3801L340.95 82.3701L341 132.17L361.78 106.61L381.99 106.62L359.63 133.35L383.87 168.76Z" fill="black"/>
<path d="M293.95 148.81L310.12 153.34C307.04 159.41 302.05 163.93 295.96 166.8C291.05 169.11 285.82 169.92 280.39 169.95C274.96 169.98 269.86 169.09 264.97 166.89C256.19 162.94 249.9 155.39 247.76 145.95C246.18 139 246.73 131.81 249.31 125.15C252.76 116.26 259.88 109.7 269.08 106.99C276.33 104.85 284.22 104.85 291.44 107C302.35 110.25 310.26 118.96 312.6 130.01C313.55 134.49 313.62 138.93 312.96 143.58H267.07C267.5 151.19 272.96 155.74 280.13 156.29C285.5 156.4 291.91 154.03 293.95 148.82V148.81ZM293.33 131.81C293.09 129.9 292.76 128.57 292.23 127.12C290.19 122.09 285.54 119.11 280.15 119.06C272.6 118.99 267.43 124.29 266.69 131.81H293.33Z" fill="black"/>
<path d="M119.16 168.86C111.18 166.52 105.59 159.62 105.06 151.48C104.67 145.51 106.82 140.17 111.25 136.24C119.18 129.23 131.15 128.22 141.29 130.5L145.58 131.95L145.33 126.5C144.74 122.67 142.02 119.99 138.27 119.07C133.79 118 129.21 118.45 124.75 119.76C120.84 121.1 117.39 122.95 113.79 125.38L108.18 113.47C112.84 110.39 117.8 108.16 123.24 106.78C137.65 103.45 157.48 105.32 162.89 120.91C163.89 123.78 164.5 126.74 164.51 129.85L164.57 148.68C164.72 150.99 165.97 152.72 168.56 152.65V168.8C160.56 170.37 150.94 170.98 149 162.21L148.45 159.17C141.46 168.03 130.12 172.08 119.17 168.86H119.16ZM144.3 151C145.09 150.12 145.59 148.95 145.59 147.87V142.03C139.4 139.88 131.34 138.66 126.01 142.63C123.82 144.27 122.71 146.62 122.99 149.36C123.49 154.31 128.54 156.78 133.83 156.2C137.88 155.75 141.53 154.11 144.31 151H144.3Z" fill="black"/>
<path d="M218.29 127.77C217 123.55 212.93 121.32 208.62 122.42C203.28 123.78 199.05 127.99 197.15 133.22V168.78H178.2V106.62H195.27L195.3 116.77C198.19 112.43 202.13 109.4 207 107.53C212.2 105.61 217.7 105.02 223.24 105.69C227.38 106.19 230.94 108.21 233.51 111.48C237.43 116.46 237.92 122.82 238.1 129.17V168.79H219.08V132.77C218.97 131.01 218.8 129.51 218.28 127.78L218.29 127.77Z" fill="black"/>
<path d="M200.85 55.3201L191.22 64.9801L176.15 53.3101L155.03 74.4501L135.81 74.3701L194.06 16.0701L232.42 45.7701H210.31L195.31 34.1401L185.8 43.6601L200.85 55.3201Z" fill="#00ABA1"/>
<path d="M81.44 168.76L62.48 168.79V106.62H79.92L79.96 118.69C82 115.45 83.8 112.66 86.62 110.45C90.91 106.76 96.34 105.08 101.88 105.78V122.87C97.02 122.96 92.29 123.79 87.86 125.81C85.18 127.14 82.96 128.91 81.43 131.53V168.76H81.44Z" fill="black"/>
<path d="M159.45 45.77L140.12 45.76L169.82 16.03L189.06 16.12L159.45 45.77Z" fill="black"/>
<path d="M206.06 74.45L186.96 74.44L203.65 57.48L214.54 65.91L206.06 74.45Z" fill="black"/>
<path d="M312.47 205.63L310.33 205.69L301.57 194.79L301.54 205.67L299.04 205.66V189.98L300.98 189.94L309.85 201.09L309.9 189.94L312.47 189.95V205.63Z" fill="black"/>
<path d="M204.68 205.7L201.32 200.24L197.78 200.2L197.76 205.69L195.24 205.66V189.94L202.59 190.01C204.88 190.03 206.54 192.27 206.86 194.17C207.28 196.65 206.13 198.79 203.96 199.78L207.57 205.64L204.68 205.69V205.7ZM202.65 197.83C204.01 197.56 204.43 195.83 204.33 194.81C204.23 193.79 203.6 192.35 202.35 192.31L197.76 192.18V198C199.45 197.98 201.08 198.14 202.65 197.83Z" fill="black"/>
<path d="M290.69 198.72H283.74V203.47L292.01 203.46L292.03 205.68H281.22V189.95H291.77L291.79 192.18H283.74V196.62L290.69 196.61V198.72Z" fill="black"/>
<path d="M329.93 198.72H322.97L322.96 203.45L331.22 203.47V205.68H320.44V189.95H331L330.99 192.18H322.97V196.62H329.92L329.93 198.72Z" fill="black"/>
<path d="M65.51 205.64L62.66 205.67L57.43 198.55L55.07 200.89L55.04 205.69L52.53 205.67V189.97L55.04 189.95L55.09 197.9L62.32 189.97L65.15 190L59 196.92L65.51 205.64Z" fill="black"/>
<path d="M158.46 200.22L158.42 205.67H155.9V189.94L163.19 190.05C165.61 190.09 167.21 192.67 167.34 194.76C167.49 197.23 166.12 199.32 163.79 200.17L158.45 200.22H158.46ZM163.09 197.83C164.46 197.56 164.84 195.84 164.76 194.8C164.69 193.83 164.06 192.33 162.82 192.3L158.43 192.18V198L163.09 197.83Z" fill="black"/>
<path d="M117.92 201.43L111.96 201.4L110.31 205.68L107.6 205.65L113.81 189.98L116.06 189.96L122.25 205.66H119.54L117.93 201.44L117.92 201.43ZM117.4 199.55L114.94 193.04L112.38 199.55H117.4Z" fill="black"/>
<path d="M220.43 205.64L217.85 205.7L217.84 192.19L212.62 192.18L212.63 189.95H225.58L225.57 192.19L220.42 192.18L220.43 205.64Z" fill="black"/>
<path d="M102.73 203.46L102.79 205.68H91.8101V189.97L94.3901 189.96L94.3801 203.45L102.73 203.46Z" fill="black"/>
<path d="M146.31 185.92L144.26 187.76C143.87 188.11 142.49 188.12 142.11 187.78L140.03 185.88C140.44 185.59 140.89 185.29 141.16 185.26C141.48 185.23 141.96 185.68 142.3 185.9L143.09 186.42C143.56 186.73 144.79 184.19 146.3 185.92H146.31Z" fill="black"/>
<path d="M42.9399 185.91L40.8699 187.78C40.4999 188.12 39.1199 188.12 38.7499 187.78L36.6499 185.86C37.0699 185.58 37.5199 185.29 37.7899 185.26C38.0999 185.22 38.5999 185.66 38.9299 185.88L39.7199 186.42C40.1699 186.73 41.4399 184.2 42.9299 185.9L42.9399 185.91Z" fill="black"/>
</g>
<defs>
<clipPath id="clip0_2_211">
<rect width="384.24" height="205.92" fill="white"/>
</clipPath>
</defs>
</svg>
